<svg xmlns="http://www.w3.org/2000/svg" viewBox="0 0 48 48" width="48px" height="48px">
  <path fill="#FF5F00" d="M22,24c0,5.2-2.8,9.6-6.9,12l0,0c4.3,3.4,10.4,3.5,14.8,0.1c4.4-3.4,5.9-9.5,3.7-14.5 s-7.4-8.3-13.2-7.9C20,15.6,21.4,19.5,22,24z"/>
  <path fill="#EB001B" d="M15.1,36l0,0c-4.3-3.4-6-9.1-4.3-14.4c1.7-5.3,6.4-8.9,11.9-9.1C21.4,8.5,18.7,6,15.3,6 c-6.6,0-12,5.4-12,12s5.4,12,12,12C15.2,30,15.1,36,15.1,36z"/>
  <path fill="#F79E1B" d="M44.7,24c0,6.6-5.4,12-12,12c-3.4,0-6.7-1.5-9-4c4.4-3.4,5.9-9.5,3.7-14.5c-2.2-5.1-7.4-8.3-13.2-7.9 c0.5-0.7,1.2-1.4,1.9-2C19.8,4.1,24.2,3,28.2,4s7.1,3.6,9,7.2C40,15.8,45,19.6,44.7,24z"/>
</svg>