<svg xmlns="http://www.w3.org/2000/svg" viewBox="0 0 48 48" width="48px" height="48px">
  <path fill="#FFFFFF" d="M45,35c0,2.209-1.791,4-4,4H7c-2.209,0-4-1.791-4-4V13c0-2.209,1.791-4,4-4h34c2.209,0,4,1.791,4,4V35z"/>
  <path fill="#0057A7" d="M19.625,23.783l2.271-13.32h3.631l-2.271,13.32H19.625z M36.078,11.08 c-0.72-0.282-1.853-0.586-3.261-0.586c-3.592,0-6.121,1.909-6.139,4.642c-0.021,2.022,1.807,3.149,3.184,3.822 c1.416,0.688,1.891,1.128,1.885,1.741c-0.012,0.94-1.132,1.367-2.175,1.367c-1.455,0-2.229-0.211-3.416-0.736l-0.469-0.224 l-0.508,3.148c0.841,0.39,2.401,0.729,4.021,0.744c3.796,0,6.265-1.887,6.291-4.807c0.019-1.599-0.954-2.819-3.048-3.823 c-1.269-0.649-2.045-1.082-2.039-1.74c0-0.585,0.656-1.203,2.076-1.203c1.182-0.02,2.041,0.252,2.707,0.538l0.322,0.158L36.078,11.08z M41.984,23.783h-2.835c-0.874,0-1.53-0.252-1.915-1.171l-5.43-12.15h3.836c0,0,0.625,1.74,0.765,2.117c0.419,0,4.14,0.003,4.666,0.003 c0.109-0.285,0.443-2.12,0.443-2.12h3.596L41.984,23.783z M34.783,15.475c0.301,0.771,1.457,3.747,1.457,3.747 c-0.021-0.036,0.3-0.822,0.481-1.352l0.249-1.206l0.727-1.188H34.783z M14.033,15.641l-3.574,9.179l-0.382-1.94 c-0.666-2.272-2.747-4.737-5.083-5.973l3.292,11.876h3.882l5.79-13.142H14.033z"/>
  <path fill="#FDBB0A" d="M9.649,10.463h-5.93L3.635,10.61C7.333,11.385,9.75,13.311,10.846,15.641L9.649,10.463z"/>
</svg>